<svg xmlns="http://www.w3.org/2000/svg" version="1.1" xmlns:xlink="http://www.w3.org/1999/xlink" xmlns:svgjs="http://svgjs.dev/svgjs" width="1000" height="202" viewBox="0 0 1000 202"><g transform="matrix(1,0,0,1,-0.6060529646481996,0.20189838561078943)"><svg viewBox="0 0 396 80" data-background-color="#274c77" preserveAspectRatio="xMidYMid meet" height="202" width="1000" xmlns="http://www.w3.org/2000/svg" xmlns:xlink="http://www.w3.org/1999/xlink"><defs></defs><g id="tight-bounds" transform="matrix(1,0,0,1,0.23999697400068953,-0.07995975667753896)"><svg viewBox="0 0 395.52 80.15991951335509" height="80.15991951335509" width="395.52"><g><svg viewBox="0 0 553.2797503720868 112.13304070134424" height="80.15991951335509" width="395.52"><g><rect width="7.317129762478458" height="97.36588194038573" x="131.28783065547634" y="7.383579380479254" fill="#e7ecef" opacity="1" stroke-width="0" stroke="transparent" fill-opacity="1" class="rect-o-0" data-fill-palette-color="primary" rx="1%" id="o-0" data-palette-color="#e7ecef"></rect></g><g transform="matrix(1,0,0,1,157.7597503720869,15.497402875511398)"><svg viewBox="0 0 395.52 81.13823495032145" height="81.13823495032145" width="395.52"><g><svg viewBox="0 0 395.52 81.13823495032145" height="81.13823495032145" width="395.52"><g><svg viewBox="0 0 395.52 81.13823495032145" height="81.13823495032145" width="395.52"><g transform="matrix(1,0,0,1,0,0)"><svg width="395.52" viewBox="4.25 -34.599998474121094 171.08999633789062 35.099998474121094" height="81.13823495032145" data-palette-color="#e7ecef"><path d="M25.3 0L4.25 0 4.25-34.6 25.3-34.6 25.3-31.2 8.1-31.2 8.1-19.25 22.3-19.25 22.3-15.9 8.1-15.9 8.1-3.4 25.3-3.4 25.3 0ZM35.5-34.6L35.5-10.4Q35.5-2.9 43.6-2.9L43.6-2.9Q47.8-2.9 49.92-4.67 52.05-6.45 52.05-10.4L52.05-10.4 52.05-34.6 55.85-34.6 55.85-10.5Q55.85-4.7 52.77-2.1 49.7 0.5 43.7 0.5 37.7 0.5 34.67-2.1 31.65-4.7 31.65-10.5L31.65-10.5 31.65-34.6 35.5-34.6ZM77.75-13.25L67.95-13.25 67.95 0 64.09 0 64.09-34.6 76.9-34.6Q82.4-34.6 85.17-32.05 87.95-29.5 87.95-24.1L87.95-24.1Q87.95-16.1 81.59-14.05L81.59-14.05 88.25 0 84 0 77.75-13.25ZM67.95-16.65L76.95-16.65Q84-16.65 84-23.93 84-31.2 76.9-31.2L76.9-31.2 67.95-31.2 67.95-16.65ZM115.94 0L94.89 0 94.89-34.6 115.94-34.6 115.94-31.2 98.74-31.2 98.74-19.25 112.94-19.25 112.94-15.9 98.74-15.9 98.74-3.4 115.94-3.4 115.94 0ZM126.39-15.1L126.39 0 122.54 0 122.54-34.6 126.39-34.6 126.39-18.5 132.09-18.7 140.94-34.6 145.34-34.6 135.44-17.2 145.89 0 141.34 0 132.14-15.3 126.39-15.1ZM151.74 0L147.94 0 157.44-34.6 165.84-34.6 175.34 0 171.54 0 169.04-8.9 154.24-8.9 151.74 0ZM162.94-31.3L160.34-31.3 155.09-12.35 168.19-12.35 162.94-31.3Z" opacity="1" transform="matrix(1,0,0,1,0,0)" fill="#e7ecef" class="undefined-text-0" data-fill-palette-color="primary" id="text-0"></path></svg></g></svg></g></svg></g></svg></g><g><svg viewBox="0 0 112.13304070134424 112.13304070134424" height="112.13304070134424" width="112.13304070134424"><g><svg xmlns="http://www.w3.org/2000/svg" xmlns:xlink="http://www.w3.org/1999/xlink" version="1.1" x="0" y="0" viewBox="5 5 90 90" enable-background="new 0 0 100 100" xml:space="preserve" height="112.13304070134424" width="112.13304070134424" class="icon-icon-0" data-fill-palette-color="accent" id="icon-0"><path d="M57.189 32.77c-0.355-1.552-0.767-3.022-1.224-4.402C53.641 28.192 51.8 26.273 51.8 23.9c0-0.944 0.296-1.821 0.795-2.547C51.593 20.038 50.668 19.4 50 19.4c-2.046 0-5.189 4.857-7.168 13.379 2.32 0.84 4.718 1.846 7.168 3.018C52.457 34.619 54.864 33.614 57.189 32.77" fill="#e7ecef" data-fill-palette-color="accent"></path><path d="M43.7 60.913c-0.744-0.427-1.459-0.87-2.18-1.312 0.156 1.392 0.358 2.735 0.58 4.052 1.251-0.464 2.519-0.977 3.804-1.535C45.17 61.718 44.438 61.338 43.7 60.913" fill="#e7ecef" data-fill-palette-color="accent"></path><path d="M45.904 37.885c-1.281-0.559-2.545-1.069-3.79-1.531-0.222 1.287-0.42 2.625-0.582 4.042 0.716-0.439 1.428-0.881 2.168-1.305C44.438 38.664 45.17 38.284 45.904 37.885" fill="#e7ecef" data-fill-palette-color="accent"></path><path d="M56.3 39.089c0.742 0.429 1.459 0.87 2.178 1.313-0.156-1.394-0.356-2.735-0.58-4.052-1.249 0.462-2.515 0.976-3.802 1.535C54.83 38.284 55.562 38.664 56.3 39.089" fill="#e7ecef" data-fill-palette-color="accent"></path><path d="M23.499 34.7c-1.022 1.771 1.606 6.918 7.993 12.89 1.888-1.589 3.946-3.167 6.186-4.702 0.211-2.707 0.549-5.282 0.98-7.709-3.844-1.185-7.384-1.865-10.258-1.865C25.377 33.313 23.886 34.032 23.499 34.7" fill="#e7ecef" data-fill-palette-color="accent"></path><path d="M31.475 52.396c-1.145 1.067-2.188 2.134-3.142 3.196 0.285 1.791-0.521 3.649-2.183 4.609-0.51 0.293-1.055 0.469-1.607 0.55-1.207 2.208-1.468 3.818-1.044 4.551 0.387 0.671 1.878 1.387 4.897 1.387 2.878 0 6.416-0.68 10.262-1.865-0.432-2.428-0.77-5-0.98-7.708C35.432 55.576 33.366 53.992 31.475 52.396" fill="#e7ecef" data-fill-palette-color="accent"></path><path d="M34.222 49.991c1.009 0.842 2.072 1.688 3.224 2.538-0.021-0.838-0.045-1.675-0.045-2.527 0-0.86 0.024-1.7 0.045-2.542C36.317 48.293 35.25 49.139 34.222 49.991" fill="#e7ecef" data-fill-palette-color="accent"></path><path d="M42.811 67.232c0.471 2.046 1.018 3.969 1.659 5.709 1.938 5.263 4.226 7.66 5.53 7.66 2.046 0 5.189-4.855 7.168-13.378-2.32-0.84-4.718-1.844-7.168-3.017C47.543 65.383 45.138 66.39 42.811 67.232" fill="#e7ecef" data-fill-palette-color="accent"></path><path d="M76.501 34.7c-0.387-0.668-1.878-1.387-4.897-1.387-2.878 0-6.418 0.68-10.262 1.865 0.432 2.427 0.77 5.002 0.98 7.709 2.246 1.538 4.311 3.124 6.201 4.718 1.533-1.427 2.926-2.862 4.106-4.284C76.22 39.012 77.151 35.832 76.501 34.7" fill="#e7ecef" data-fill-palette-color="accent"></path><path d="M50 5C25.187 5 5 25.188 5 50c0 24.813 20.187 45 45 45s45-20.187 45-45C95 25.188 74.813 5 50 5M79.619 67.1c-0.84 1.456-2.428 2.385-4.563 2.844-0.099 0.415-0.235 0.821-0.457 1.209-1.242 2.15-3.995 2.888-6.148 1.646-1.175-0.679-1.907-1.809-2.148-3.041-1.784-0.314-3.694-0.789-5.685-1.389C58.378 77.877 54.465 84.2 50 84.2s-8.378-6.321-10.617-15.831c-4.124 1.241-7.893 1.919-10.986 1.919-3.909 0-6.77-1.03-8.016-3.188-1.099-1.906-0.8-4.463 0.631-7.371-0.389-0.325-0.74-0.71-1.007-1.176-1.245-2.153-0.507-4.906 1.646-6.147 1.486-0.861 3.252-0.754 4.614 0.092 0.771-0.826 1.618-1.66 2.508-2.498-7.108-6.688-10.624-13.234-8.392-17.1 1.246-2.155 4.108-3.187 8.016-3.187 3.094 0 6.862 0.679 10.986 1.92C41.622 22.125 45.535 15.8 50 15.8c2.035 0 3.95 1.341 5.653 3.665 0.211-0.028 0.425-0.065 0.646-0.065 2.485 0 4.5 2.015 4.5 4.5 0 1.299-0.557 2.458-1.435 3.278 0.461 1.391 0.879 2.874 1.252 4.456 4.122-1.241 7.893-1.921 10.982-1.921 3.913 0 6.771 1.032 8.02 3.187 2.23 3.866-1.283 10.412-8.392 17.1C78.336 56.692 81.85 63.236 79.619 67.1" fill="#e7ecef" data-fill-palette-color="accent"></path><path d="M65.778 50.009c-1.009-0.84-2.074-1.686-3.226-2.537C62.575 48.311 62.6 49.147 62.6 50c0 0.859-0.024 1.7-0.047 2.542C63.683 51.71 64.748 50.865 65.778 50.009" fill="#e7ecef" data-fill-palette-color="accent"></path><path d="M68.508 52.412c-1.89 1.589-3.946 3.169-6.186 4.704-0.211 2.707-0.549 5.28-0.98 7.709 2.028 0.624 3.96 1.101 5.762 1.41 1.343-1.812 3.846-2.386 5.847-1.23 0.622 0.356 1.107 0.851 1.479 1.406 1.171-0.268 1.832-0.696 2.071-1.111C77.522 63.532 74.893 58.383 68.508 52.412" fill="#e7ecef" data-fill-palette-color="accent"></path><path d="M54.5 42.206c-1.494-0.861-2.997-1.652-4.5-2.407-1.505 0.754-3.006 1.545-4.5 2.407-1.499 0.865-2.939 1.768-4.34 2.688C41.066 46.537 41 48.227 41 50c0 1.733 0.063 3.428 0.156 5.101 1.377 0.907 2.808 1.807 4.344 2.693 1.494 0.865 2.995 1.652 4.5 2.407 1.503-0.754 3.006-1.542 4.5-2.407 1.498-0.863 2.938-1.765 4.338-2.684C58.934 53.466 59 51.775 59 50c0-1.729-0.062-3.426-0.158-5.101C57.467 43.995 56.036 43.094 54.5 42.206" fill="#e7ecef" data-fill-palette-color="accent"></path><path d="M54.096 62.117c1.279 0.559 2.544 1.069 3.79 1.533 0.222-1.287 0.422-2.626 0.58-4.043-0.714 0.441-1.428 0.881-2.166 1.306S54.83 61.718 54.096 62.117" fill="#e7ecef" data-fill-palette-color="accent"></path></svg></g></svg></g></svg></g></svg><rect width="395.52" height="80.15991951335509" fill="none" stroke="none" visibility="hidden"></rect></g></svg></g></svg>